<?xml version="1.0" encoding="utf-8"?>
<!-- Generator: Adobe Illustrator 16.0.0, SVG Export Plug-In . SVG Version: 6.00 Build 0)  -->
<!DOCTYPE svg PUBLIC "-//W3C//DTD SVG 1.1//EN" "http://www.w3.org/Graphics/SVG/1.1/DTD/svg11.dtd">
<svg version="1.1" id="レイヤー_1" xmlns:svg="http://www.w3.org/2000/svg"
	 xmlns="http://www.w3.org/2000/svg" xmlns:xlink="http://www.w3.org/1999/xlink" x="0px" y="0px" width="34.016px"
	 height="34.016px" viewBox="-386.99 287.373 34.016 34.016" enable-background="new -386.99 287.373 34.016 34.016"
	 xml:space="preserve">
<g>
	<path stroke="#000000" stroke-width="0.1699" stroke-linejoin="round" d="M-385.427,303.028v17.11c0,0.579,0.466,1.046,1.046,1.046
		h30.156c0.58,0,1.047-0.467,1.047-1.046v-17.11l-15.752-2.271L-385.427,303.028z"/>
	<path d="M-360.523,289.12l-0.044,2.176l2.432,1.961l3.856-1.034l-1.192-4.456L-360.523,289.12z M-369.387,291.496l-0.103,2.199
		l2.491,1.935l4.251-1.137l0.458-2.524l-2.846-1.612L-369.387,291.496z M-378.25,293.87l0.084,2.246l2.304,1.888l4.25-1.139
		l-0.122-2.422l-2.266-1.712L-378.25,293.87z M-386.621,296.111l1.194,4.457l4.952-1.328l0.102-2.436l-2.489-1.699L-386.621,296.111
		z"/>
	<path fill="#FFFFFF" d="M-365.136,290.356l2.388,4.137l4.613-1.236l-2.388-4.137L-365.136,290.356z M-374,292.731l2.388,4.134
		l4.613-1.235l-2.388-4.134L-374,292.731z M-382.864,295.105l2.388,4.136l4.613-1.237l-2.388-4.134L-382.864,295.105z"/>
	<path d="M-380.198,300.568l0.651,2.285l-1.887,2.327h-3.993v-4.612H-380.198z M-371.021,300.568l0.712,2.386l-1.948,2.227h-4.401
		l-1.092-2.329l2.328-2.283H-371.021z M-361.845,300.568l0.481,2.261l-1.717,2.352h-4.401l-0.477-2.461l1.713-2.151H-361.845z
		 M-353.179,300.568v4.612h-5.127l-0.758-2.247l1.995-2.365H-353.179z"/>
	<path fill="#FFFFFF" d="M-375.422,300.568l-1.236,4.612h-4.776l1.236-4.612H-375.422z M-366.246,300.568l-1.236,4.612h-4.775
		l1.236-4.612H-366.246z M-357.069,300.568l-1.237,4.612h-4.775l1.236-4.612H-357.069z"/>
	<path fill="none" stroke="#000000" stroke-width="0.1699" stroke-linejoin="round" d="M-386.622,296.111l31.151-8.345l1.192,4.456
		l-31.149,8.346L-386.622,296.111z"/>
	<path fill="none" stroke="#000000" stroke-width="0.1699" stroke-linejoin="round" d="M-353.178,300.568h-32.249v4.612h32.249
		V300.568z"/>
</g>
<g>
	<path fill="#FFFFFF" d="M-371.242,311.335l0.875,0.356c-0.025,0.075-0.074,0.161-0.148,0.21c-0.295,1.801-0.825,3.354-1.552,4.611
		c0.554,0.653,1.208,1.182,1.971,1.553c-0.32,0.271-0.751,0.801-0.973,1.171c-0.702-0.394-1.306-0.912-1.835-1.528
		c-0.505,0.604-1.072,1.109-1.701,1.504c-0.172-0.333-0.628-0.863-0.924-1.109c-0.161,0.383-0.345,0.751-0.567,1.072
		c-0.185-0.198-0.616-0.518-0.949-0.716l-0.801,0.334c-0.049-0.211-0.123-0.457-0.209-0.728c-1.17,0.296-2.316,0.567-3.117,0.739
		c-0.012,0.123-0.099,0.197-0.197,0.223l-0.579-1.505c0.259-0.037,0.554-0.085,0.874-0.147v-5.806l-0.037,0.037
		c-0.222-0.296-0.69-0.716-0.998-0.912c1.134-0.925,1.947-2.145,2.415-3.131l1.602,0.271c-0.024,0.074-0.086,0.137-0.197,0.174
		c0.714,0.529,1.614,1.257,2.058,1.749l-0.937,1.011c-0.382-0.468-1.146-1.146-1.824-1.714c-0.394,0.63-0.875,1.283-1.454,1.898
		h0.912v-0.974l1.54,0.086c-0.013,0.112-0.099,0.185-0.296,0.211v0.677h1.503v4.241h-2.957v1.935l1.257-0.232
		c-0.148-0.358-0.295-0.705-0.443-1.013l1.183-0.443c0.333,0.642,0.678,1.418,0.937,2.07c0.689-1.565,0.751-3.549,0.751-5.078
		v-4.265h5.717v1.369h-4.325v1.848h3.191L-371.242,311.335z M-378.093,311.977h-1.651v0.591h1.651V311.977z M-379.744,314.17h1.651
		v-0.615h-1.651V314.17z M-374.741,314.38c-0.045,0.556-0.063,1.937-0.764,3.661c0.665-0.382,1.256-0.889,1.75-1.518
		c-0.382-0.652-0.703-1.367-0.974-2.144H-374.741z M-374.667,312.716l-0.012,0.407l0.813-0.198c0.222,0.826,0.53,1.627,0.936,2.343
		c0.382-0.739,0.69-1.592,0.9-2.552H-374.667z"/>
</g>
<path fill="#FFFFFF" d="M-356.058,312.539c0,3.848-3.261,5.288-5.978,6.966c-3.134-2.321-5.978-3.118-5.978-6.966
	c0-3.847,4.42-7.134,5.941,0C-360.912,304.814-356.058,308.692-356.058,312.539z"/>
<path fill="#FFFFFF" d="M-1220.833,834.167"/>
</svg>
